<svg viewBox="0 0 424.43 661.33" xmlns="http://www.w3.org/2000/svg"><path d="m369 0s-7.16 11.34-19.05 33.93c-4.35 8.48-12.6 24.55-23 43.08-3.62 6.47-4.83 8.47-9 16-5.4 9.81-7.26 13.5-15 27.91-1.14 2.13-.42.79-13 24.05-12.1 22.42-11.94 22.13-14 26-7.45 13.72-7.95 14.47-12 22-5.28 9.93-5.6 10.83-10 18.92-4.66 8.64-4.91 8.73-11.07 19.94-1.23 2.23-6.43 11.71-12.94 24-3.7 7-4.6 8.82-9 17.1-3.23 6.08-5.84 10.93-8 15-10.38 19.24-27.65 50.85-39 71.92-15.58 28.85-14.46 27.63-30.92 58.11-12.16 22.66-29.02 52.97-29.02 52.97a5.07 5.07 0 0 1 -1.07 2 78.82 78.82 0 0 0 -10-2 82.74 82.74 0 0 0 -30.82 2 89.15 89.15 0 0 0 -20.11 8.07 91.65 91.65 0 0 0 -18 11.95 92.49 92.49 0 0 0 -14 15 101.21 101.21 0 0 0 -10 15.87 94.55 94.55 0 0 0 -9.95 38.83 95.63 95.63 0 0 0 4.95 33.29 97.61 97.61 0 0 0 33.92 47 92.87 92.87 0 0 0 24.1 13 92.11 92.11 0 0 0 25.89 5.06 93.94 93.94 0 0 0 33.09-3 94.28 94.28 0 0 0 29-14.1 97.86 97.86 0 0 0 26-28 93.72 93.72 0 0 0 13-66.08 112.37 112.37 0 0 0 -9.17-27.82 63.23 63.23 0 0 0 -11-16.09l-.88-.88c3.08-4.67 7.71-11.9 13-21.12.92-1.6 1-1.68 5-9 10-18 11.34-20.23 15-26.92s6.24-11.67 9-17c17.77-34 27.35-54.24 45.13-89.09 1.75-3.43 4.87-9.54 8.92-17.94 1.74-3.61 4.25-8.89 12-26 6.18-13.69 9.28-20.53 13-29 3.6-8.24 3.25-7.62 12-28 8.51-19.87 8.63-20 11.09-26 4-9.83 6.81-17.17 10.93-28 3.93-10.35 6.56-17.27 10-27 3.35-9.52 5.68-16.67 9-27 3.43-10.5 5.14-15.76 7-22 3.43-11.61 5.64-20.55 7-26 1.42-5.76 3.66-14.9 6-27 1.92-9.75 3.19-17.67 3.89-22.23.4-2.6.67-4.34 1-6.83a175.45 175.45 0 0 0 1.58-22.07c.04-6.5-.49-6.83-.49-6.83zm-273.39 626.51a60.76 60.76 0 1 1 60.76-60.76 60.76 60.76 0 0 1 -60.76 60.76z" fill="#e3683c"/><path d="m423 549a84.62 84.62 0 0 0 -6.07-21 90.38 90.38 0 0 0 -7.93-14.08 106.4 106.4 0 0 0 -10.09-13 94.67 94.67 0 0 0 -26.01-19.92 92.81 92.81 0 0 0 -23-8c-6.88-1.54-16.14-3.54-28-2.07a69.27 69.27 0 0 0 -10 2l-1-2s-.51-1-1-2c-7.07-13.15-11-20-11-20-5.16-9.06-8.6-16-22-41-6.18-11.5-7.67-14.17-19-35-28.55-52.61-27.87-51.85-47.06-87-10-18.4-14.58-26.59-23.92-44-6.55-12.2-8.41-15.8-15-28-8.85-16.33-10-18.18-18-33-1.14-2.1-6.12-11.45-16.05-30.06-10.39-19.47-12.33-23.12-16-29.93-4.9-9.14-8.31-15.5-13-24-8-14.76-8.89-16.16-18-33-6.23-11.45-9.34-17.17-13-24-4.62-8.66-9.54-17.17-14-25.93-6.01-10.86-7.87-14.01-7.87-14.01a129.9 129.9 0 0 0 0 21.91c.22 2.47.32 4.43 1 8.12 1.44 8.37 2.23 15.1 3.05 19.73.47 2.62 2.11 11.7 4.93 24 .89 3.91 4.34 18.77 10.1 38.12 2.13 7.15 3.92 12.7 5.95 19 3.71 11.54 6.75 20.39 8 24 1.37 4 6.45 18.6 13.93 38 1.58 4.11 7.86 20.36 17 42 6.54 15.48 11.61 26.73 18 40.94 7.15 15.89 12.77 28 17 37 5.53 11.89 10.73 23 17 36.06 17.57 36.38 33.22 65.6 42 82.05 3 5.56 2.66 4.89 14 25.85 10.37 19.27 13.04 24.22 18.04 33.12 2.4 4.28 9 16 9 16s-8.84 11.1-13 20.1a86.89 86.89 0 0 0 -7.09 25.22 101.27 101.27 0 0 0 1 34.71 97.34 97.34 0 0 0 11 28.93 93.56 93.56 0 0 0 25.07 28 97.33 97.33 0 0 0 90.9 12.14 94.9 94.9 0 0 0 61.12-80.08 99.22 99.22 0 0 0 -1-25.92zm-93.42 77.56a60.78 60.78 0 1 1 60.78-60.78 60.78 60.78 0 0 1 -60.79 60.78z" fill="#e3683c"/><g fill="#fff"><circle cx="212.09" cy="353.86" r="24.57"/></g><circle cx="212.18" cy="353.62" fill="#e3683c" r="16.55"/></svg>