<svg enable-background="new 0 0 488.3 589" viewBox="0 0 488.3 589" xmlns="http://www.w3.org/2000/svg"><path d="m70.8 128.1c1.8-3 3.1-5.2 3.3-5.7 13.2-22.8 21.6-35.6 21.6-35.6 6-9.2 9.5-14 11.1-16 4-5.2 8.2-10.2 11-13.3 2.3-2.5 12.4-12.6 33.8-24.2 12.6-6.8 22.4-10 42.1-16.3 13.9-4.5 29.5-9.4 50.8-13.1 11-1.9 22.9-3.9 38.9-3.9 12.5 0 22.6 0 33.8 3.5 13.7 4.3 22.9 11.9 36.9 25.4 26.7 25.7 45.3 48.3 51.6 56 21.5 26.2 42.9 54.8 42.9 54.8 1.1 2.8 2.2 5.8 3.2 8.7 3.2 9.2 9 27.7 12.3 51.6 0 .1.1.4.1.4s-17.7-10.4-32.7-19.4c-16.1-9.7-28.6-15.7-42.5-22.2-3.7-1.8-20.8-9.8-44.1-18.7-22.5-8.5-28.8-9.5-32.6-9.9-3.7-.4-17.7-1.8-35.3 2.4-2.3.5-5.8 1.5-17.1 5.6-17.6 6.4-24.1 9.7-41.3 16.7-27.5 11.1-35.5 12.5-38.9 13.1-5.6.9-14.7 2.3-26.2 1.2-3.9-.4-6.5-1-40.5-14.3h-.1c-17.2-9.1-25.8-11.8-43-21-.3-.2-1-.5-1.9-1 .8-1.3 1.7-2.9 2.8-4.8z" fill="#d2d3d4"/><path d="m488.3 336.5c-.6-26.1-4.6-46.5-8.3-65-1-5.1-1.3-6.3-3-13.7-.5-2.4-2.1-9.4-5.2-23.5-1.9-8.5-4.5-20.3-7.6-34.7-.1-.3-.2-.7-.3-1-3.4-2-8.5-4.9-14.6-8.5-27.6-15.9-36.4-20.6-40.1-22.5-24.6-13.3-41.6-19.9-75.6-33.2-7.1-2.8-18.7-7.2-34-6.7-4.3.1-9.3.7-17.9 2.7-16.8 4-27 8.8-43 15.4-14 5.9-30.9 12.5-50.9 18.4-10.2 3-19 5.2-30.3 4.4-7.7-.5-12.9-2.2-21.5-5-11.9-3.9-20-7.9-47.2-21.7-5.4-2.8-12.2-6.2-20-10.2-.2.4-.6 1.1-1.1 1.8-.3.5-.5.8-.9 1.3-.5.7-.9 1.3-1.2 1.6-.6.8-.6.9-.9 1.2-.7.9-1.1 1.6-1.7 2.5-.1.2-1 1.5-1.6 2.5-1 1.7-1.7 2.8-3.1 6-.7 1.6-1.5 3.1-2.3 4.7-2.4 5.1-3.6 7.7-4.5 9.6-1.5 3.2-3.9 8.2-6.8 14.6-3.3 7.2-3.1 6.1-8.3 17-5.1 10.8-11.4 24.4-18.4 40.5 0 0 1.7 4.4 9.6 14.3 14 17.6 21 26.4 32.8 38.5 11.2 11.6 16.9 17.4 23.4 20.9 11.2 6 21.3 7 29.7 7.7 38.3 3.3 61.7 3 61.7 3s43.1-.4 80.1 3c5.5.5 16.7 1.7 27 9.4 4.5 3.4 7.2 6.8 11.8 12.7s8.3 11.5 16.5 25.9c8.9 15.6 10.9 20.2 17.6 30 6.3 9.2 9.8 13 14.9 16 5 3 10.2 3.9 17.9 5.2 4.1.7 17.1 2.7 50.4-4.1 11.9-2.4 20.7-4.8 29.2-7.2 16-4.4 29.2-8.6 38.5-11.8 0 0 5.5-13.1 7.4-27.8 2.1-17.5 1.8-31 1.8-34.2z" fill="#bdbec0"/><path d="m432.7 412.2c-17.6 5.2-30.9 6.7-42.2 8-1.2.1-13.2 1.4-28.7.3-6.6-.5-9.5-1.1-12.4-2.2-6.6-2.5-11.5-6.8-17.6-14.3-5.9-7.2-8.8-12.3-17.4-27.3-11.6-20.3-13.3-23-16.3-27.3-7.9-11.4-11.8-17.2-18.7-21.5-6.1-3.7-12.5-5.6-28.4-7.4-19.2-2.2-34.2-2.2-38.9-2.2-22.2.1-51 .4-80.5-.8-6.4-.3-14.7-.7-25.4-3.3-5.4-1.3-17.9-4.6-30.3-12.7-9.1-5.9-15.3-13.6-27.3-28.7-15.2-19.1-25.9-32.6-30.7-38.6-.1.2-.2.5-.3.7-1.2 6.4-2.4 12.8-3.6 19.2 0 .1-.1.7-.1.8-4.1 22.1-4.5 23.9-5 27-2.9 18.6-5.6 35.4-7.4 58.1-1 11.8-1.2 21.7-1.7 41.6-.3 12.3-.3 19.1 1.7 27.8 1.5 6.7 3.8 13.4 9.1 24 3.2 6.4 10.6 20.2 32.5 48.8 12.5 16.2 22.3 27.6 24.8 30.6 11.8 13.7 22.6 25.1 31.4 33.9 0 0 11.6 5.7 27 10.7 49.4 16.4 55 21 82.7 27 20 4.4 29.1 4.6 32.8 4.6 15 .1 26.3-2.7 41.9-7.1 23.9-6.8 61.5-17.6 98.9-36.1 14-6.9 22.7-12.3 31.7-17.9 11.6-7.3 14.9-10.1 16.8-11.8 7.2-6.7 12.6-14.6 18.7-27.8 7.4-16 10.2-27.6 14.6-43.3 3.2-11.6 8.2-28.4 15.2-49 .3-.1-15.2 6.8-46.9 16.2z" fill="#a8a9ac"/></svg>